<svg xmlns="http://www.w3.org/2000/svg" viewBox="0 0 480 72.32"><defs><style>.cls-1{fill:#fff;}</style></defs><g id="Layer_2" data-name="Layer 2"><g id="ON_GREEN" data-name="ON GREEN"><g id="ON_GREEN-2" data-name="ON GREEN"><path class="cls-1" d="M22.62,43.12h-.19V70.39H0V1.93H22.33V27.17h.2L40.8,1.93H67.87L42.15,33.26l27,37.13H40.9Z"/><path class="cls-1" d="M73.74,1.93h29.49a47.09,47.09,0,0,1,10,1.07,23.63,23.63,0,0,1,8.89,3.57,18.78,18.78,0,0,1,6.38,6.87,21.49,21.49,0,0,1,2.42,10.73,20.19,20.19,0,0,1-3.09,11.12,20.22,20.22,0,0,1-8.9,7.35l17.4,27.75H109.8L96.65,45.92H96V70.39H73.74Zm22,28.91h4.55a17.62,17.62,0,0,0,2.51-.19,8.37,8.37,0,0,0,2.61-.77,6,6,0,0,0,2-1.75,4.84,4.84,0,0,0,.87-3,5.37,5.37,0,0,0-.67-2.9,4.06,4.06,0,0,0-1.75-1.55,5.69,5.69,0,0,0-2.32-.68,15.08,15.08,0,0,0-2.32-.19H95.78Z"/><path class="cls-1" d="M181.75,70.39h-23v-28L132.92,1.93h27.75L171.5,22,181.85,1.93h27.07L181.75,42.35Z"/><path class="cls-1" d="M235.92,48.34v22H213V1.93H242.4a45.7,45.7,0,0,1,10.25,1.16,25.06,25.06,0,0,1,9,3.77A19.37,19.37,0,0,1,268,13.92a22.53,22.53,0,0,1,2.41,11A22.4,22.4,0,0,1,268,35.77,20.08,20.08,0,0,1,261.73,43a25.22,25.22,0,0,1-9,4.06,42.37,42.37,0,0,1-10.34,1.26Zm0-28.52v11h4.83a9.22,9.22,0,0,0,4.74-1.25,4.82,4.82,0,0,0,2.22-4.45,5,5,0,0,0-.58-2.61,4,4,0,0,0-1.64-1.65,6.22,6.22,0,0,0-2.22-.77,11.4,11.4,0,0,0-2.52-.29Z"/><path class="cls-1" d="M312.66,70.39h-23v-49H272.83V1.93h56.65V21.37H312.66Z"/><path class="cls-1" d="M330.48,35.77A36.31,36.31,0,0,1,333.38,21a33.22,33.22,0,0,1,7.93-11.31A36,36,0,0,1,353.4,2.51a46.56,46.56,0,0,1,30.16,0,36,36,0,0,1,12.09,7.16,32.5,32.5,0,0,1,8,11.31,36.15,36.15,0,0,1,2.9,14.79,37.56,37.56,0,0,1-2.9,15,34.34,34.34,0,0,1-8,11.6,36.46,36.46,0,0,1-12.09,7.35,44.87,44.87,0,0,1-30.16,0,36.46,36.46,0,0,1-12.09-7.35,35.13,35.13,0,0,1-7.93-11.6A37.73,37.73,0,0,1,330.48,35.77Zm24.46,0a19,19,0,0,0,1,6.19,16.09,16.09,0,0,0,2.8,4.83,13.42,13.42,0,0,0,4.36,3.2,13.7,13.7,0,0,0,5.41,1.06A13.09,13.09,0,0,0,373.8,50a13.49,13.49,0,0,0,4.35-3.2A13.76,13.76,0,0,0,381,42,17.3,17.3,0,0,0,382,35.77a16.21,16.21,0,0,0-1.07-6,11.9,11.9,0,0,0-2.8-4.64,12.93,12.93,0,0,0-4.35-3,13.09,13.09,0,0,0-5.32-1.06,13.7,13.7,0,0,0-5.41,1.06,12.88,12.88,0,0,0-4.36,3,13.68,13.68,0,0,0-2.8,4.64A17.79,17.79,0,0,0,354.94,35.77Z"/><path class="cls-1" d="M416.29,1.93H439.2l19.53,34.71h.39l-1-34.71H480V70.39H456.51L437.56,37.71h-.39l1,32.68H416.29Z"/></g></g></g></svg>