<svg id="图层_1" data-name="图层 1" xmlns="http://www.w3.org/2000/svg" viewBox="0 0 300 150"><defs><style>.cls-1{fill:#fff;stroke:#000;stroke-width:5px;}.cls-1,.cls-3{fill-rule:evenodd;}.cls-2{isolation:isolate;}.cls-3{stroke:#fff;stroke-width:4.93px;}.cls-4{fill:#fdfefa;}</style></defs><g id="页面-1"><g id="Apple-TV"><g id="编组-5"><g id="编组-4"><path id="矩形备份-2" class="cls-1" d="M7.58,12.52h253a.94.94,0,0,1,1,1v58a.94.94,0,0,1-1,1H7.58a.94.94,0,0,1-1-1v-58A.94.94,0,0,1,7.58,12.52Z"/><g class="cls-2"><path d="M36,50.19a7.87,7.87,0,0,0,3.36-.65,11.77,11.77,0,0,0,2.95-2.1l2.43,2.5a11.2,11.2,0,0,1-8.63,3.93,11.53,11.53,0,0,1-8.41-3.26,11.06,11.06,0,0,1-3.35-8.26A11.18,11.18,0,0,1,27.75,34a11.84,11.84,0,0,1,8.61-3.32,11.26,11.26,0,0,1,8.69,3.84l-2.4,2.62a10.49,10.49,0,0,0-3-2.14,8.37,8.37,0,0,0-3.34-.61,8,8,0,0,0-5.7,2.19,7.41,7.41,0,0,0-2.3,5.6,7.73,7.73,0,0,0,2.29,5.7A7.41,7.41,0,0,0,36,50.19Z"/><path d="M52.5,48.53l-2.24,5.09h-4l9.86-22.37h4L70,53.62h-4L63.7,48.53ZM62.17,45,58.1,35.83,54,45Z"/><path d="M82.87,53.62H73.08V31.25h8.7a12.63,12.63,0,0,1,3.92.54,5.42,5.42,0,0,1,2.45,1.48,5.69,5.69,0,0,1,1.54,3.9A4.6,4.6,0,0,1,88,41.07a6.17,6.17,0,0,1-.83.56c-.15.08-.41.2-.8.37a5.84,5.84,0,0,1,3.31,1.87,5.23,5.23,0,0,1,1.24,3.54,6.06,6.06,0,0,1-1.6,4.13C88.08,52.92,85.92,53.62,82.87,53.62Zm-6-13.09h4.8q4.09,0,4.09-2.78a2.64,2.64,0,0,0-1-2.31,5.36,5.36,0,0,0-3.07-.7H76.86Zm0,9.6h5.92A6.28,6.28,0,0,0,86,49.47,2.62,2.62,0,0,0,87.06,47q0-3-4.76-3H76.86Z"/><path d="M98.58,48.53l-2.24,5.09h-4l9.86-22.37h4l9.86,22.37h-4l-2.24-5.09ZM108.25,45l-4.07-9.21L100.12,45Z"/><path d="M119.16,53.62V31.25h3.78V50h10.2v3.59Z"/><path d="M137.27,53.62V31.25h3.78V50h10.2v3.59Z"/><path d="M171.09,31.25V34.8H159.16v5.92h10.72v3.36H159.16v6h12.32v3.55h-16.1V31.25Z"/><path d="M194.17,38.51c0,3.7-1.61,6-4.83,7l5.85,8.13h-4.8l-5.34-7.52h-5v7.52h-3.78V31.25h8.32c3.41,0,5.86.58,7.33,1.73S194.17,36,194.17,38.51Zm-5,3.17a4,4,0,0,0,1.16-3.18,3.41,3.41,0,0,0-1.19-3,7.91,7.91,0,0,0-4.22-.82h-4.8v8h4.7C186.92,42.67,188.38,42.34,189.14,41.68Z"/><path d="M218.33,50.53a12.28,12.28,0,0,1-16.77,0,11.08,11.08,0,0,1-3.39-8.26A11.07,11.07,0,0,1,201.56,34a12.28,12.28,0,0,1,16.77,0,11.07,11.07,0,0,1,3.39,8.25A11.08,11.08,0,0,1,218.33,50.53Zm-2.77-14a7.84,7.84,0,0,0-11.23,0,8.35,8.35,0,0,0,0,11.49,7.84,7.84,0,0,0,11.23,0,8.35,8.35,0,0,0,0-11.49Z"/><path d="M233.25,34.19a4.94,4.94,0,0,0-2.7.68,2.24,2.24,0,0,0-1.06,2A2.38,2.38,0,0,0,230.55,39a15.72,15.72,0,0,0,4.5,1.55,12.32,12.32,0,0,1,5.18,2.34A5.53,5.53,0,0,1,242,47.3a5.87,5.87,0,0,1-2.2,4.75,8.79,8.79,0,0,1-5.8,1.82,13.61,13.61,0,0,1-9.31-3.61L227,47.41a10.67,10.67,0,0,0,7,2.94,4.84,4.84,0,0,0,2.9-.78A2.47,2.47,0,0,0,238,47.49a2.35,2.35,0,0,0-1-2,10.72,10.72,0,0,0-3.47-1.31,29.35,29.35,0,0,1-3.75-1.09,8.53,8.53,0,0,1-2.27-1.29,5.42,5.42,0,0,1-2-4.61,5.61,5.61,0,0,1,2.25-4.78,9.12,9.12,0,0,1,5.59-1.68,13.28,13.28,0,0,1,4.25.7,11.14,11.14,0,0,1,3.65,2l-2,2.85a7.68,7.68,0,0,0-2.69-1.47A10.5,10.5,0,0,0,233.25,34.19Z"/></g><path id="矩形备份-3" class="cls-3" d="M118.19,77.48H292.38a.94.94,0,0,1,1,.94v58.12a.93.93,0,0,1-1,.94H118.19a.93.93,0,0,1-1-.94V78.42A.94.94,0,0,1,118.19,77.48Z"/><g class="cls-2"><path class="cls-4" d="M149,115.39a7.87,7.87,0,0,0,3.36-.66,11.77,11.77,0,0,0,2.95-2.1l2.43,2.5a11.23,11.23,0,0,1-8.63,3.94,11.54,11.54,0,0,1-8.41-3.27,11.84,11.84,0,0,1,.06-16.57,11.81,11.81,0,0,1,8.61-3.33A11.26,11.26,0,0,1,158,99.74l-2.4,2.62a10.49,10.49,0,0,0-3-2.14,8.37,8.37,0,0,0-3.34-.61,8,8,0,0,0-5.7,2.19,7.41,7.41,0,0,0-2.3,5.6,7.73,7.73,0,0,0,2.29,5.7A7.42,7.42,0,0,0,149,115.39Z"/><path class="cls-4" d="M165.49,113.72l-2.24,5.09h-4l9.86-22.37h4L183,118.81h-4l-2.24-5.09Zm9.67-3.49L171.09,101,167,110.23Z"/><path class="cls-4" d="M201.17,98.39c1.56,1.31,2.34,3.31,2.34,6s-.8,4.69-2.39,6-4,1.89-7.31,1.89h-4v6.56h-3.78V96.44h7.68Q198.83,96.44,201.17,98.39Zm-2.67,9.24a4.94,4.94,0,0,0,1.14-3.52,3.64,3.64,0,0,0-1.44-3.28,8.32,8.32,0,0,0-4.52-1h-3.83v9h4.38C196.32,108.83,197.74,108.43,198.5,107.63Z"/><path class="cls-4" d="M208,96.44h3.77v22.37H208Z"/><path class="cls-4" d="M226.39,99.9v18.91h-3.78V99.9h-6.78V96.44h17.34V99.9Z"/><path class="cls-4" d="M238.68,113.72l-2.24,5.09h-4l9.86-22.37h4l9.86,22.37h-4l-2.24-5.09Zm9.66-3.49L244.28,101l-4.07,9.21Z"/><path class="cls-4" d="M259.25,118.81V96.44H263v18.79h10.21v3.58Z"/></g></g></g></g></g></svg>